<?xml version="1.0" standalone="no"?><!DOCTYPE svg PUBLIC "-//W3C//DTD SVG 1.1//EN" "http://www.w3.org/Graphics/SVG/1.1/DTD/svg11.dtd" [<!ENTITY nbsp " ">]><svg data-noselect="" viewBox="183.78050994873 96 378 378" width="400" height="300" preserveAspectRatio="xMidYMid meet" version="1.1" xmlns="http://www.w3.org/2000/svg" style="background: rgba(255, 255, 255, 0);"><defs><pattern id="wm_tile" x="0" y="0" width="37%" height="37%" patternunits="objectBoundingBox"><g id="wm_lm" transform="translate(-188.000000, -323.000000)" fill="#cccccc"><text font-size="10" transform="translate(270.490979, 373.245789) rotate(-390.000000) translate(-270.490979, -373.245789)"><tspan x="187.490979" opacity=".5" y="378.245789"></tspan></text></g></pattern></defs><rect x="183.78050994873" y="96" width="100%" height="100%" style="fill: url(#wm_tile);"></rect><defs></defs> <g id="shape_cdwZUZPSj9" transform="translate(213.78050994873,126) rotate(0,159,159) scale(1,1)" filter="" style="cursor: move; opacity: 1;"><g><rect fill="rgba(0,0,0,0)" width="338" height="338" x="-10" y="-10"></rect><svg version="1.1" id="图层_1" xmlns="http://www.w3.org/2000/svg" xmlns:xlink="http://www.w3.org/1999/xlink" x="0px" y="0px" viewBox="0 0 283.465 283.465" style="enable-background:new 0 0 283.465 283.465;" xml:space="preserve" width="318" height="318" preserveAspectRatio="none" data-parent="shape_cdwZUZPSj9">
<circle style="" cx="141.732" cy="141.732" r="138.75" fill="none" stroke="#3E3A39" stroke-width="3.5" stroke-miterlimit="10"></circle>
</svg></g> <!----></g><g id="shape_lDrbNVdMo4" transform="translate(276.15007400513,368.42001342773) rotate(0,51.5,21.365373150125) scale(1,1)" filter="" style="cursor: move; opacity: 1;"><g><rect fill="rgba(0,0,0,0)" width="123" height="62.730746300249" x="-10" y="-10"></rect><svg version="1.1" id="图层_1" xmlns="http://www.w3.org/2000/svg" xmlns:xlink="http://www.w3.org/1999/xlink" x="0px" y="0px" viewBox="0 0 283.465 98.477" style="enable-background:new 0 0 283.465 98.477;" xml:space="preserve" width="103" height="42.730746300249" preserveAspectRatio="none" data-parent="shape_lDrbNVdMo4">
<path d="M282,60.828c0-7.475-6.447-13.558-14.37-13.558L15.835,47.106c-5.433,0-9.851-4.161-9.851-9.283
	c0-5.131,4.418-9.293,9.851-9.293l184.102-0.136c7.927,0,14.377-6.08,14.377-13.552c0-7.469-6.45-13.556-14.377-13.556H77.321v4.268
	h93.394c5.438,0,9.861,4.169,9.861,9.288c0,5.116-4.423,9.289-9.861,9.289l-154.88,0.136c-7.93,0-14.371,6.082-14.371,13.556
	c0,7.466,6.441,13.548,14.371,13.548l231.966,0.166c5.438,0,9.847,4.165,9.847,9.292c0,5.117-4.408,9.292-9.847,9.292L95.042,70.088
	c-7.923,0-14.373,6.078-14.373,13.556c0,7.466,6.45,13.548,14.373,13.548h99.798v-4.259H95.042c-5.43,0-9.853-4.171-9.853-9.288
	c0-5.127,4.423-9.292,9.853-9.292l172.587,0.033C275.553,74.385,282,68.295,282,60.828z M199.937,24.13H181.13
	c2.442-2.433,3.967-5.688,3.967-9.289s-1.525-6.856-3.967-9.288h18.807c5.436,0,9.853,4.169,9.853,9.288
	C209.79,19.958,205.373,24.13,199.937,24.13z M277.485,60.828c0,5.117-4.426,9.292-9.855,9.292h-9.42
	c2.44-2.431,3.965-5.691,3.965-9.292c0-3.606-1.525-6.861-3.965-9.292h9.42C273.059,51.537,277.485,55.702,277.485,60.828z"></path>
</svg></g> <!----></g><g id="shape_WnZpBBiN8m" transform="translate(294.28057479858,173.50005722046) rotate(0,95,97.46) scale(1,1)" filter="" style="cursor: move; opacity: 1;"><g><svg xmlns="http://www.w3.org/2000/svg" version="1.1" xmlns:xlink="http://www.w3.org/1999/xlink" overflow="hidden" style="top:0; left: 0" width="195" height="194.92" viewBox="0 0 190 194.92" preserveAspectRatio="none" data-parent="shape_WnZpBBiN8m"><rect fill="rgba(0,0,0,0)" width="195" height="194.92"></rect> <rect opacity="0"></rect><g transform="translate(0 0)" data-width="185"><path fill="#000000" d="M66.52-69.44L67.03-68.92Q67.55-68.41 67.55-68.32Q67.55-68.23 65.66-66.17L65.66-66.17Q63.77-64.28 61.70-62.56L61.70-62.56Q59.98-61.02 58.27-59.98L58.27-59.98Q56.55-58.78 55.34-58.27L55.34-58.27Q53.80-57.41 52.08-56.89L52.08-56.89Q50.53-56.38 48.98-56.20L48.98-56.20L47.61-56.03L47.61-53.11L47.61-50.02L60.67-50.02L73.73-50.02L73.73-48.47L73.73-46.75L60.67-46.75L47.61-46.75L47.61-41.42Q47.61-36.09 47.27-34.55L47.27-34.55Q46.92-33 46.41-31.97L46.41-31.97Q45.89-30.77 45.20-29.99Q44.52-29.22 44.52-29.13Q44.52-29.05 51.82-29.05Q59.13-29.05 59.13-28.96Q59.13-28.88 55-22.69L55-22.69Q50.70-16.33 50.70-16.16L50.70-16.16L54.66-15.81Q56.55-15.81 62.05-15.81L62.05-15.81L73.56-15.81L73.56-14.27L73.56-12.72L60.84-12.55L48.30-12.55L48.30-6.70Q48.13-0.86 47.78 0L47.78 0Q47.44 0.86 46.92 1.72L46.92 1.72Q46.23 2.58 45.29 3.44Q44.34 4.30 43.14 4.98L43.14 4.98Q41.94 5.67 40.05 6.36L40.05 6.36Q37.98 7.05 35.75 7.39L35.75 7.39Q33.34 7.73 33.17 7.73L33.17 7.73Q33 7.73 33 7.30Q33 6.88 34.20 6.27Q35.41 5.67 36.61 4.81L36.61 4.81Q37.81 3.78 38.50 2.92L38.50 2.92Q39.19 1.89 39.70 0.86L39.70 0.86Q40.22-0.34 40.39-1.55L40.39-1.55Q40.56-2.92 40.56-7.56L40.56-7.56L40.39-12.55L27.84-12.55L15.13-12.72L15.13-14.27L15.13-15.81L27.84-15.81L40.39-15.81L40.56-16.67L40.56-17.36L42.11-17.36L43.66-17.36L46.41-21.48Q49.16-25.61 49.16-25.70Q49.16-25.78 39.36-25.78L39.36-25.78L29.56-25.78L29.56-27.50L29.56-29.05L34.89-29.05L40.22-29.05L40.22-37.98L40.22-46.75L27.16-46.75L14.09-46.92L14.09-48.47L14.09-50.02L27.16-50.02L40.22-50.02L40.22-53.11L40.22-56.20L30.08-56.20L19.94-56.20L20.11-58.78L20.11-61.53L37.13-61.70Q54.31-61.70 55.34-62.05L55.34-62.05Q56.38-62.56 57.92-63.25L57.92-63.25Q59.47-64.11 61.02-64.97L61.02-64.97Q62.56-66 63.77-67.03L63.77-67.03Q65.14-68.23 65.83-68.75L65.83-68.75L66.52-69.44ZM26.30-45.20L29.73-45.20L33-45.20L32.66-43.66Q32.14-41.94 31.45-40.39L31.45-40.39Q30.77-39.02 29.91-37.47L29.91-37.47Q29.22-36.09 28.02-34.55L28.02-34.55Q26.81-33 25.27-31.63L25.27-31.63Q23.89-30.25 22.17-29.13Q20.45-28.02 18.91-27.16L18.91-27.16Q17.19-26.30 17.02-26.30L17.02-26.30Q16.84-26.30 16.84-27.67L16.84-27.67L16.84-29.05L18.05-29.91Q19.25-30.59 20.45-31.97L20.45-31.97Q21.83-33.34 23.03-35.06L23.03-35.06Q24.06-36.78 24.66-38.07Q25.27-39.36 25.70-40.99Q26.13-42.63 26.13-43.83L26.13-43.83L26.30-45.20ZM59.30-45.20L59.30-45.20L62.39-45.20L62.56-44Q62.73-42.80 63.08-41.08L63.08-41.08Q63.59-39.53 64.11-38.24Q64.63-36.95 65.48-35.58L65.48-35.58Q66.34-34.03 67.89-32.31L67.89-32.31Q69.61-30.77 70.81-29.91L70.81-29.91L71.84-29.22L71.84-27.84Q71.84-26.30 71.67-26.30Q71.50-26.30 69.61-27.33L69.61-27.33Q68.06-28.19 66.34-29.39L66.34-29.39Q64.97-30.42 63.34-32.05Q61.70-33.69 60.67-35.58L60.67-35.58Q59.47-37.30 58.44-39.19L58.44-39.19Q57.58-41.25 56.89-42.97L56.89-42.97Q56.20-45.03 56.20-45.12Q56.20-45.20 59.30-45.20Z" transform="translate(5 77.171875)" data-glyph-w="88"></path><path fill="#000000" d="M12.72-64.97L45.03-64.97L77.34-64.97L77.34-63.42L77.34-61.88L62.39-61.88L47.27-61.88L47.09-59.98Q47.09-58.09 46.75-56.89L46.75-56.89Q46.58-56.55 46.41-56.20Q46.23-55.86 46.23-55.60Q46.23-55.34 46.06-55.34L46.06-55.34L47.78-55Q49.16-55 55-55L55-55Q63.94-55 63.94-55.34Q63.94-55.69 67.55-55.69L67.55-55.69L71.16-55.69L71.16-43.48Q70.98-31.11 70.55-29.82Q70.13-28.53 69.44-27.67L69.44-27.67Q68.58-26.64 67.55-25.95L67.55-25.95Q66.52-25.44 65.14-25.44L65.14-25.44L63.94-25.44L63.94-26.81L63.77-28.19L44.52-28.36L25.27-28.36L24.41-27.33Q23.55-26.30 22.52-25.87Q21.48-25.44 20.28-25.44L20.28-25.44L19.08-25.44L19.08-40.73L19.08-56.03L22.69-55.86Q26.30-55.86 26.47-55.34L26.47-55.34L26.47-55L33.17-55L39.70-55L39.70-58.44L39.70-61.88L26.30-61.88L12.72-61.88L12.72-63.42L12.72-64.97ZM63.77-51.56L45.20-51.56L26.47-51.56L26.47-49.33L26.47-47.09L45.20-47.09L63.94-47.09L63.94-49.33L63.77-51.56ZM63.77-43.66L45.20-43.83L26.47-43.83L26.47-41.59L26.47-39.36L45.20-39.36L63.77-39.36L63.77-41.59L63.77-43.66ZM40.05-36.09L40.05-36.09L26.47-36.09L26.47-34.03Q26.47-33.34 26.38-32.83Q26.30-32.31 26.30-32.05Q26.30-31.80 26.30-31.71Q26.30-31.63 26.47-31.63L26.47-31.63Q35.41-31.63 45.03-31.63L45.03-31.63L63.77-31.63L63.94-33.69L63.94-35.92L58.78-36.09Q53.80-36.09 40.05-36.09ZM30.59-26.81L35.23-26.81Q39.70-26.81 39.70-26.64L39.70-26.64Q39.70-26.47 38.67-24.58L38.67-24.58L37.64-22.69L50.53-22.69L63.42-22.69L63.59-22Q63.59-21.66 63.59-20.28L63.59-20.28Q63.42-19.25 62.82-19.25Q62.22-19.25 60.50-16.67L60.50-16.67Q58.78-14.44 57.06-12.38L57.06-12.38Q55.34-10.14 54.48-9.28L54.48-9.28Q53.63-8.42 52.42-7.39L52.42-7.39Q51.56-6.53 51.56-6.36L51.56-6.36Q51.73-6.36 53.28-5.84L53.28-5.84Q54.66-5.50 56.72-5.16L56.72-5.16Q58.44-4.81 64.11-4.98L64.11-4.98Q69.95-4.98 71.50-5.16L71.50-5.16Q73.05-5.50 73.39-5.16L73.39-5.16Q73.91-4.64 75.97-1.55L75.97-1.55Q78.20 1.72 78.20 1.89L78.20 1.89Q78.03 1.89 75.97 2.23L75.97 2.23Q73.91 2.41 70.38 2.58Q66.86 2.75 64.11 2.58L64.11 2.58Q61.36 2.41 59.73 2.15Q58.09 1.89 56.38 1.55L56.38 1.55Q54.66 1.03 53.11 0.34L53.11 0.34Q51.22-0.34 49.67-1.20L49.67-1.20Q48.13-1.89 47.09-2.58L47.09-2.58L46.41-2.92L44.17-1.89Q42.28-1.03 40.05-0.17L40.05-0.17Q37.81 0.52 35.58 1.03L35.58 1.03Q33.17 1.72 30.25 2.06L30.25 2.06Q27.50 2.58 23.89 2.92L23.89 2.92Q20.63 3.27 16.50 3.44L16.50 3.44Q12.55 3.27 12.55 3.09L12.55 3.09Q12.72 2.75 12.98 2.49Q13.23 2.23 15.13 1.89L15.13 1.89Q17.02 1.72 20.11 1.03L20.11 1.03Q23.38 0.52 25.95-0.34L25.95-0.34Q28.36-1.03 30.59-1.72L30.59-1.72Q32.48-2.41 34.72-3.44L34.72-3.44Q36.95-4.47 39.02-5.50L39.02-5.50Q40.91-6.70 40.91-6.70L40.91-6.70Q40.91-6.88 39.02-8.42L39.02-8.42Q37.30-9.97 34.89-12.38L34.89-12.38L32.48-14.78L31.45-13.75Q30.42-12.89 28.53-11.17L28.53-11.17Q26.64-9.63 24.75-8.25L24.75-8.25Q22.69-7.05 20.80-6.02Q18.91-4.98 16.67-4.13L16.67-4.13Q14.27-3.27 12.20-2.58L12.20-2.58Q10.14-2.06 9.88-2.15Q9.63-2.23 9.63-2.66Q9.63-3.09 9.80-3.27L9.80-3.27Q10.14-3.44 12.20-4.81L12.20-4.81Q14.09-6.02 16.16-7.73L16.16-7.73Q18.39-9.45 20.28-11.34L20.28-11.34Q22.34-13.23 23.89-15.30L23.89-15.30Q25.27-17.02 26.47-18.73L26.47-18.73Q27.33-20.11 29.05-23.55L29.05-23.55L30.59-26.81ZM44.17-19.25L44.17-19.25L35.75-19.25L34.89-17.88L33.86-16.50L36.44-14.78Q39.02-12.89 41.42-11.34L41.42-11.34Q44.17-9.63 44.52-9.63Q44.86-9.63 47.09-12.03L47.09-12.03Q48.98-14.27 50.88-16.67L50.88-16.67Q52.77-19.08 52.77-19.16Q52.77-19.25 44.17-19.25Z" transform="translate(95 77.171875)" data-glyph-w="88"></path></g><g transform="translate(0 0)" data-width="185"><path fill="#000000" d="M55.34-67.03L55.34-67.03Q55.34-67.03 55.86-66.77Q56.38-66.52 56.98-66.17Q57.58-65.83 58.09-65.66L58.09-65.66Q60.50-64.28 60.59-64.20Q60.67-64.11 58.95-61.53L58.95-61.53Q57.23-58.78 57.23-58.78L57.23-58.78Q57.23-58.61 58.78-56.89L58.78-56.89Q60.84-54.66 63.94-51.22L63.94-51.22Q67.38-47.44 69.44-46.06L69.44-46.06Q73.39-43.31 73.39-43.31L73.39-43.31L75.28-41.94L75.28-38.50Q75.28-37.47 75.28-36.70Q75.28-35.92 75.20-35.49Q75.11-35.06 75.11-35.06L75.11-35.06Q74.94-35.06 70.64-38.33L70.64-38.33Q67.38-40.73 66.60-41.42Q65.83-42.11 64.45-44L64.45-44Q62.56-46.58 59.30-51.39L59.30-51.39Q56.03-56.38 55.86-56.55L55.86-56.55Q55.69-56.55 52.08-50.53L52.08-50.53L48.30-44.69L42.45-38.67Q36.61-32.66 36.44-32.66Q36.27-32.66 35.92-33.34L35.92-33.34Q35.75-34.03 36.44-34.98Q37.13-35.92 40.56-40.39L40.56-40.39Q43.83-44.86 44.86-46.92L44.86-46.92Q45.55-48.47 50.36-58.09L50.36-58.09Q54.83-67.03 55.34-67.03ZM20.97-67.20L24.75-67.20L28.36-67.20L28.36-58.61L28.36-50.02L31.80-50.02L35.06-50.02L35.06-48.47L35.06-46.75L31.80-46.75L28.36-46.75L28.36-38.67L28.36-30.59L29.56-31.28Q30.59-31.80 32.31-32.83L32.31-32.83Q34.03-33.69 34.20-33.69Q34.38-33.69 34.38-31.28L34.38-31.28L34.38-28.88L31.28-27.33L28.36-25.78L28.36-14.09Q28.36-2.58 28.02-1.38Q27.67-0.17 27.16 0.86L27.16 0.86Q26.64 1.89 25.61 3.09L25.61 3.09Q24.41 4.13 23.20 4.73Q22 5.33 21.48 5.50L21.48 5.50L20.97 5.67L20.97-8.08Q20.97-21.66 20.80-21.66Q20.63-21.66 17.36-19.94L17.36-19.94Q14.09-18.22 13.92-18.22L13.92-18.22Q13.92-19.42 13.92-20.45L13.92-20.45L13.75-22.86L17.36-24.75L20.80-26.64L20.97-36.61L20.97-46.75L16.84-46.75L12.72-46.92L12.72-48.47L12.72-50.02L16.84-50.02L20.97-50.02L20.97-58.61L20.97-67.20ZM45.03-37.98L56.72-37.98L68.41-37.98L68.41-36.27L68.41-34.72L56.72-34.72L45.03-34.72L45.03-36.27L45.03-37.98ZM40.91-26.30L44.52-26.30L48.13-26.30L48.30-24.92L48.30-23.55L56.03-23.55L63.59-23.55L63.59-24.92L63.77-26.13L67.38-26.13L70.98-26.13L70.98-13.92Q70.98-8.94 70.90-6.27Q70.81-3.61 70.81-2.32Q70.81-1.03 70.64-0.52L70.64-0.52Q70.47 0.86 69.95 1.72L69.95 1.72Q69.61 2.58 68.75 3.52Q67.89 4.47 66.95 4.90Q66 5.33 64.80 5.33L64.80 5.33L63.77 5.33L63.77 1.89L63.77-1.55L55.86-1.38L48.13-1.38L47.95-0.52Q47.78 0.34 47.27 1.55L47.27 1.55Q46.75 2.75 45.89 3.61L45.89 3.61Q45.20 4.30 44.17 4.81L44.17 4.81Q43.14 5.16 42.11 5.16L42.11 5.16L40.91 5.16L40.91-10.66L40.91-26.30ZM63.59-20.11L56.03-20.28Q48.47-20.28 48.38-20.20Q48.30-20.11 48.30-12.38L48.30-12.38L48.30-4.81L56.03-4.81L63.77-4.81L63.59-12.55L63.59-20.11Z" transform="translate(5 166.38187499999998)" data-glyph-w="88"></path><path fill="#000000" d="M52.77-68.75L56.38-68.75L60.16-68.75L60.16-60.50L60.16-52.25L66.17-52.25L72.36-52.25L72.36-50.53L72.36-48.81L66.17-48.81L60.16-48.81L60.16-42.28L60.16-35.75L68.75-35.75L77.34-35.75L77.34-34.03L77.34-32.48L68.75-32.48L60.16-32.48L60.16-18.56Q60.16-4.47 59.64-3.27Q59.13-2.06 59.13-1.89Q59.13-1.72 64.28-1.72L64.28-1.72L69.44-1.72L69.44-13.41L69.44-25.09L73.22-25.09L76.83-25.27L76.83-15.30Q76.83-5.33 76.48-4.13L76.48-4.13Q76.31-2.92 75.80-1.72L75.80-1.72Q75.28-0.69 74.25 0.34L74.25 0.34Q73.05 1.20 73.05 1.46Q73.05 1.72 54.48 1.72L54.48 1.72L35.75 1.72L35.92-1.03Q36.09-3.61 36.09-14.44L36.09-14.44L36.09-25.27L39.70-25.09L43.48-25.09L43.48-15.98Q43.48-6.88 43.31-5.33L43.31-5.33Q43.14-3.78 42.80-2.75L42.80-2.75L42.45-1.72L47.61-1.72L52.77-1.72L52.77-17.02L52.59-32.31L42.97-32.31L33.34-32.48L33.34-34.03L33.34-35.75L43.14-35.75L52.77-35.75L52.77-42.28L52.77-48.81L45.03-48.81L37.30-48.81L37.30-50.53L37.30-52.25L45.03-52.25L52.77-52.25L52.77-60.50L52.77-68.75ZM10.31-64.80L14.09-64.80L17.70-64.63L17.88-63.77L17.88-62.73L20.80-62.91L23.89-62.91L23.89-63.59L23.89-64.45L27.50-64.45L31.11-64.45L31.11-56.55Q31.11-48.64 30.94-47.44L30.94-47.44Q30.59-46.41 30.25-45.38L30.25-45.38Q29.73-44.69 29.05-43.83L29.05-43.83Q28.53-43.14 27.50-42.63L27.50-42.63L26.47-42.11L27.50-41.42Q28.53-40.91 29.22-40.22L29.22-40.22Q29.91-39.36 30.25-38.50L30.25-38.50Q30.59-37.47 30.94-36.44L30.94-36.44Q31.11-35.41 31.11-27.50L31.11-27.50L31.11-19.77L25.61-19.77L19.94-19.77L19.94-21.31L19.94-23.03L21.83-23.03L23.89-23.20L23.89-41.25L23.89-59.30L20.80-59.47L17.88-59.47L17.88-29.91Q17.88-0.17 17.53 1.20Q17.19 2.58 16.76 3.52Q16.33 4.47 15.47 5.33L15.47 5.33Q14.78 6.19 13.58 6.70L13.58 6.70Q12.55 7.22 11.52 7.22L11.52 7.22L10.31 7.22L10.31-28.88L10.31-64.80Z" transform="translate(95 166.38187499999998)" data-glyph-w="88"></path></g></svg></g> <!----></g>  <!----></svg>